<?xml version="1.0" standalone="no"?>
<!DOCTYPE svg PUBLIC "-//W3C//DTD SVG 20010904//EN"
 "http://www.w3.org/TR/2001/REC-SVG-20010904/DTD/svg10.dtd">
<svg version="1.0" xmlns="http://www.w3.org/2000/svg"
 width="452.000000pt" height="731.000000pt" viewBox="0 0 452.000000 731.000000"
 preserveAspectRatio="xMidYMid meet">

<g transform="translate(0.000000,731.000000) scale(0.100000,-0.100000)"
fill="#000000" stroke="none">
<path d="M3820 7300 c-237 -42 -436 -232 -485 -465 -13 -60 -15 -328 -15
-1887 0 -1805 0 -1818 20 -1838 20 -20 33 -20 573 -20 484 0 555 2 575 16 l22
15 0 2079 0 2079 -22 15 c-19 14 -66 16 -323 15 -165 -1 -320 -5 -345 -9z
m570 -2100 l0 -1990 -475 0 -475 0 0 1769 c0 1143 4 1787 10 1822 33 179 197
343 375 377 28 5 166 10 308 11 l257 1 0 -1990z"/>
<path d="M2145 6160 c-170 -34 -326 -152 -408 -307 -70 -134 -67 -59 -67
-1464 0 -1214 1 -1267 18 -1282 17 -15 71 -17 573 -17 464 0 558 2 575 14 19
14 19 41 19 1526 0 1485 0 1512 -19 1526 -16 11 -77 14 -335 13 -174 -1 -334
-5 -356 -9z m595 -1530 l0 -1420 -475 0 -475 0 2 1243 3 1242 37 78 c44 92
127 181 206 221 98 50 136 55 430 55 l272 1 0 -1420z"/>
<path d="M518 5029 c-32 -4 -88 -20 -125 -35 -174 -69 -294 -197 -354 -379
l-24 -70 -3 -707 c-3 -700 -3 -707 18 -728 20 -20 30 -20 573 -20 484 0 555 2
575 16 l22 15 0 943 c0 865 -1 945 -17 957 -13 11 -78 14 -312 15 -163 1 -322
-2 -353 -7z m562 -964 l0 -855 -475 0 -475 0 0 628 c0 408 4 649 11 688 36
197 193 350 394 383 28 5 161 9 298 10 l247 1 0 -855z"/>
<path d="M2760 670 l0 -670 110 0 110 0 0 670 0 670 -110 0 -110 0 0 -670z"/>
<path d="M370 631 l0 -631 110 0 110 0 2 233 3 232 165 5 c141 4 170 8 199 25
82 48 94 106 89 410 -3 205 -5 223 -26 262 -15 28 -37 50 -65 65 -40 22 -54
23 -314 26 l-273 4 0 -631z m434 443 c14 -13 16 -47 16 -213 0 -140 -3 -200
-12 -209 -8 -8 -48 -12 -115 -12 l-103 0 0 218 c0 120 3 222 7 225 3 4 48 7
99 7 71 0 96 -4 108 -16z"/>
<path d="M3604 952 l133 -309 -138 -319 c-77 -175 -139 -320 -139 -321 0 -2
54 -3 119 -3 l120 0 19 52 c11 29 45 125 77 213 32 88 61 163 64 167 3 4 42
-92 85 -212 l79 -220 123 0 c68 0 124 2 124 4 0 2 -63 144 -140 316 -77 172
-140 318 -140 324 0 6 55 142 121 301 66 160 123 296 126 303 4 10 -21 12
-118 10 l-122 -3 -67 -205 c-59 -180 -68 -202 -77 -180 -6 14 -37 107 -69 208
l-58 182 -127 0 -127 0 132 -308z"/>
<path d="M1307 966 c-57 -16 -84 -38 -108 -91 -17 -36 -19 -71 -19 -385 0
-314 2 -349 19 -386 40 -88 106 -108 335 -102 139 3 155 5 195 28 60 34 83 81
89 181 l5 79 -112 0 -111 0 0 -48 c0 -26 -5 -53 -12 -60 -7 -7 -44 -12 -95
-12 -103 0 -105 2 -101 147 l3 108 213 3 212 2 0 193 c0 108 -5 209 -11 232
-16 57 -64 100 -127 114 -71 15 -315 13 -375 -3z m290 -172 c9 -12 13 -53 13
-121 l0 -103 -110 0 -110 0 0 103 c0 140 7 147 130 141 47 -2 68 -8 77 -20z"/>
<path d="M2068 965 c-59 -19 -94 -63 -108 -135 -13 -69 -13 -611 0 -680 14
-75 48 -116 112 -135 107 -31 221 -15 262 38 l26 32 0 -42 0 -43 110 0 110 0
0 490 0 490 -110 0 -110 0 0 -47 c0 -45 -1 -46 -13 -24 -24 48 -60 64 -149 68
-54 2 -99 -2 -130 -12z m275 -174 c17 -17 17 -585 0 -602 -17 -17 -115 -24
-142 -10 -21 12 -21 15 -21 311 0 274 1 300 18 310 22 14 129 7 145 -9z"/>
<path d="M3109 744 l-106 -235 106 -254 106 -255 116 0 117 0 -109 251 c-60
138 -109 254 -109 258 0 4 49 112 109 239 l109 232 -116 0 -117 -1 -106 -235z"/>
</g>
</svg>
