<svg width="250" height="72" viewBox="0 0 250 72" fill="none" xmlns="http://www.w3.org/2000/svg">
<path d="M133.118 15.8491H125.104V55.9206H133.118V15.8491Z" fill="#27C7FF"/>
<path d="M177.068 15.8491H169.054V55.9206H177.068V15.8491Z" fill="#27C7FF"/>
<path d="M191.025 27.8706H183.011V55.9206H191.025V27.8706Z" fill="#27C7FF"/>
<path d="M191.025 19.8562H183.011V23.8633H191.025V19.8562Z" fill="#27C7FF"/>
<path d="M111.143 27.8706H103.129C101.003 27.8706 98.9646 28.715 97.4616 30.2179C95.9586 31.7209 95.1143 33.7594 95.1143 35.8849V47.9063C95.1143 50.0318 95.9586 52.0703 97.4616 53.5733C98.9646 55.0762 101.003 55.9206 103.129 55.9206H111.143C113.268 55.9206 115.307 55.0762 116.81 53.5733C118.313 52.0703 119.157 50.0318 119.157 47.9063V35.8849C119.157 33.7594 118.313 31.7209 116.81 30.2179C115.307 28.715 113.268 27.8706 111.143 27.8706ZM111.143 47.9063C111.143 48.9691 110.721 49.9883 109.969 50.7398C109.218 51.4913 108.198 51.9135 107.136 51.9135C106.073 51.9135 105.054 51.4913 104.302 50.7398C103.551 49.9883 103.129 48.9691 103.129 47.9063V35.8849C103.129 34.8221 103.551 33.8029 104.302 33.0514C105.054 32.2999 106.073 31.8777 107.136 31.8777C108.198 31.8777 109.218 32.2999 109.969 33.0514C110.721 33.8029 111.143 34.8221 111.143 35.8849V47.9063Z" fill="#27C7FF"/>
<path d="M155.093 27.8706H147.079C146.026 27.8701 144.984 28.0771 144.011 28.4797C143.039 28.8823 142.155 29.4726 141.411 30.2169C140.666 30.9612 140.076 31.8449 139.674 32.8174C139.271 33.79 139.064 34.8323 139.064 35.8849V47.9063C139.064 50.0318 139.909 52.0703 141.412 53.5733C142.915 55.0762 144.953 55.9206 147.079 55.9206H155.093C157.219 55.9206 159.257 55.0762 160.76 53.5733C162.263 52.0703 163.107 50.0318 163.107 47.9063V35.8849C163.107 33.7594 162.263 31.7209 160.76 30.2179C159.257 28.715 157.219 27.8706 155.093 27.8706ZM155.093 47.9063C155.093 48.9691 154.671 49.9883 153.919 50.7398C153.168 51.4913 152.149 51.9135 151.086 51.9135C150.023 51.9135 149.004 51.4913 148.252 50.7398C147.501 49.9883 147.079 48.9691 147.079 47.9063V35.8849C147.079 34.8221 147.501 33.8029 148.252 33.0514C149.004 32.2999 150.023 31.8777 151.086 31.8777C152.149 31.8777 153.168 32.2999 153.919 33.0514C154.671 33.8029 155.093 34.8221 155.093 35.8849V47.9063Z" fill="#27C7FF"/>
<path d="M241.986 43.8992H250V35.8849C250 34.8324 249.793 33.7903 249.39 32.818C248.987 31.8456 248.397 30.9621 247.653 30.2179C246.908 29.4737 246.025 28.8834 245.053 28.4807C244.08 28.0779 243.038 27.8706 241.986 27.8706H233.971C231.846 27.8706 229.807 28.715 228.304 30.2179C226.801 31.7209 225.957 33.7594 225.957 35.8849V47.9063C225.957 48.9588 226.164 50.0009 226.567 50.9732C226.97 51.9456 227.56 52.8291 228.304 53.5733C229.049 54.3175 229.932 54.9078 230.904 55.3105C231.877 55.7133 232.919 55.9206 233.971 55.9206H241.986C243.038 55.9206 244.08 55.7133 245.053 55.3105C246.025 54.9078 246.908 54.3175 247.653 53.5733C248.397 52.8291 248.987 51.9456 249.39 50.9732C249.793 50.0009 250 48.9588 250 47.9063H245.993C245.993 48.4325 245.889 48.9536 245.688 49.4398C245.486 49.926 245.191 50.3677 244.819 50.7398C244.447 51.1119 244.005 51.4071 243.519 51.6084C243.033 51.8098 242.512 51.9135 241.986 51.9135H237.978C236.916 51.9135 235.896 51.4913 235.145 50.7398C234.393 49.9883 233.971 48.9691 233.971 47.9063V43.8992H241.986ZM233.971 35.8849C233.971 34.8221 234.393 33.8029 235.145 33.0514C235.896 32.2999 236.916 31.8777 237.978 31.8777C239.041 31.8777 240.06 32.2999 240.812 33.0514C241.563 33.8029 241.986 34.8221 241.986 35.8849V39.892H233.971V35.8849Z" fill="#27C7FF"/>
<path d="M213 27.8706V47.9063C213 48.4325 212.897 48.9536 212.695 49.4398C212.494 49.926 212.199 50.3677 211.827 50.7398C211.454 51.1119 211.013 51.4071 210.527 51.6084C210.04 51.8098 209.519 51.9135 208.993 51.9135H205V27.8706H196.972V55.9206H207.054C210.756 55.9206 214.307 54.4497 216.926 51.8316C219.544 49.2135 221.015 45.6625 221.015 41.9599V27.8706H213Z" fill="#27C7FF"/>
<path d="M81.1536 27.8706H77.1429C76.0832 27.8715 75.067 28.2921 74.3167 29.0404C73.5664 29.7887 73.1431 30.8037 73.1393 31.8634V15.8491H65.125V55.9206H73.1393V35.8848C73.1393 34.8221 73.5615 33.8028 74.313 33.0514C75.0644 32.2999 76.0837 31.8777 77.1464 31.8777C78.2092 31.8777 79.2284 32.2999 79.9799 33.0514C80.7314 33.8028 81.1536 34.8221 81.1536 35.8848V55.9206H89.1679V35.8848C89.1679 33.7593 88.3235 31.7209 86.8205 30.2179C85.3176 28.7149 83.2791 27.8706 81.1536 27.8706Z" fill="#27C7FF"/>
<path d="M73.1396 33.0658C73.1396 33.1333 73.1396 33.2009 73.1396 33.2684C73.1432 33.2009 73.1396 33.1333 73.1396 33.0658Z" fill="#27C7FF"/>
<path d="M55.2213 38.3625H51.7178V45.3697H55.2213V38.3625Z" fill="#4F9FEF"/>
<path d="M52.1429 40.83L7.52857 20.3871C6.71609 20.0268 5.82674 19.8744 4.94065 19.9435C4.05456 20.0125 3.19958 20.301 2.45274 20.7828C1.70591 21.2646 1.09068 21.9247 0.662506 22.7035C0.23433 23.4824 0.00665681 24.3555 0 25.2443L0 66.0157C0 69.8657 4.41072 72.7335 7.91786 71.1335L51.9143 50.1157C56.325 47.9014 56.2679 42.6978 52.1429 40.83Z" fill="#4F9FEF"/>
<path d="M55.2213 31.3553H51.7178V38.3625H55.2213V31.3553Z" fill="#27C7FF"/>
<path d="M52.1429 34.0694L7.52857 13.6372C6.71582 13.2768 5.82614 13.1244 4.93977 13.1936C4.05339 13.2629 3.19819 13.5517 2.45126 14.0339C1.70433 14.5161 1.08917 15.1767 0.661242 15.956C0.233312 16.7353 0.00606821 17.6089 0 18.4979L0 59.2658C0 63.1194 4.41072 65.9837 7.91786 64.4015L51.9143 43.3765C56.325 41.1515 56.2679 35.9515 52.1429 34.0694Z" fill="#27C7FF"/>
<path d="M55.2213 26.2262H51.7178V31.4191H55.2213V26.2262Z" fill="#DFFAFF"/>
<path d="M51.9142 31.0305L7.91785 52.0555C4.41071 53.6555 0 50.7876 0 46.9376V52.259C0 56.109 4.41071 58.9769 7.91785 57.3769L51.9142 36.3519C55.2678 34.6733 56.0357 31.2662 54.3964 28.8983C53.7721 29.816 52.9156 30.5518 51.9142 31.0305Z" fill="#DFFAFF"/>
<path d="M7.52857 6.63013L52.1429 27.0587C53.0475 27.4568 53.8274 28.0924 54.4 28.898C56.0429 26.4194 55.2321 23.148 52.1429 21.7373L7.52857 1.3087C6.71444 0.947717 5.82315 0.795392 4.93534 0.865507C4.04753 0.935622 3.19121 1.22596 2.44383 1.71027C1.69645 2.19458 1.08161 2.85756 0.654905 3.63926C0.228206 4.42096 0.00311664 5.2967 0 6.18727L0 11.4873C0.00665681 10.5985 0.23433 9.72539 0.662506 8.94655C1.09068 8.16771 1.70591 7.50764 2.45274 7.02581C3.19958 6.54398 4.05456 6.25553 4.94065 6.18646C5.82674 6.11738 6.71609 6.26985 7.52857 6.63013Z" fill="#77E7EF"/>
<path d="M7.91785 52.0549L51.9143 31.0299C52.917 30.5483 53.7736 29.8087 54.3964 28.8871C53.8234 28.0859 53.0448 27.4542 52.1428 27.0585L7.52857 6.62992C6.71609 6.26964 5.82674 6.11717 4.94065 6.18625C4.05456 6.25532 3.19958 6.54377 2.45274 7.0256C1.7059 7.50743 1.09068 8.1675 0.662506 8.94634C0.23433 9.72518 0.00665681 10.5983 0 11.4871L0 46.9371C0 50.7871 4.41071 53.6549 7.91785 52.0549Z" fill="#5FDDEF"/>
</svg>
