<svg
    version="1.0"
    xmlns="http://www.w3.org/2000/svg"
    width="500.000000pt"
    height="500.000000pt"
    viewBox="-80 -80 660 660"
    preserveAspectRatio="xMidYMid meet"
>
    <defs>
        <clipPath id="circleClip">
            <circle cx="250" cy="250" r="330"/>
        </clipPath>
    </defs>
    <g clip-path="url(#circleClip)">
        <rect x="-80" y="-80" width="660" height="660" fill="#fff"/>
        <g
            transform="translate(7,520) scale(0.100000,-0.100000)"
            fill="none"
            stroke="#000"
            stroke-width="150"
        >
            <path d="M3975 4804 c-226 -48 -413 -234 -460 -459 -13 -60 -15 -328 -15
            -1887 0 -1805 0 -1818 20 -1838 20 -20 33 -20 573 -20 484 0 555 2 575 16 l22
            15 0 2079 0 2079 -22 15 c-32 23 -588 22 -693 0z m595 -2094 l0 -1990 -475 0
            -475 0 0 1769 c0 1143 4 1787 10 1822 33 179 197 343 375 377 28 5 166 10 308
            11 l257 1 0 -1990z"/>
            <path d="M2325 3670 c-171 -34 -326 -152 -409 -310 -69 -131 -66 -59 -66
            -1461 0 -1214 1 -1267 18 -1282 17 -15 71 -17 573 -17 464 0 558 2 575 14 19
            14 19 41 19 1526 0 1485 0 1512 -19 1526 -16 11 -77 14 -335 13 -174 -1 -334
            -5 -356 -9z m595 -1530 l0 -1420 -475 0 -475 0 2 1242 3 1243 37 78 c44 92
            127 181 206 221 98 50 136 55 430 55 l272 1 0 -1420z"/>
            <path d="M698 2539 c-32 -4 -88 -20 -125 -35 -174 -69 -294 -197 -354 -379
            l-24 -70 -3 -707 c-3 -700 -3 -707 18 -728 20 -20 30 -20 573 -20 484 0 555 2
            575 16 l22 15 0 943 c0 865 -1 945 -17 957 -13 11 -78 14 -312 15 -163 1 -322
            -2 -353 -7z m562 -964 l0 -855 -475 0 -475 0 0 628 c0 408 4 649 11 688 36
            197 193 350 394 383 28 5 161 9 298 10 l247 1 0 -855z"/>
        </g>
    </g>
</svg>
