<svg width="250" height="71" viewBox="0 0 250 71" fill="none" xmlns="http://www.w3.org/2000/svg">
<path d="M68.8554 48.5631C68.3645 54.7036 68.3645 60.7282 68.8554 66.8688C68.8775 67.1383 68.664 67.3688 68.3944 67.3688H66.1979C65.9283 67.3688 65.7148 67.1383 65.7369 66.8688C66.2239 60.7764 66.2239 54.6554 65.7369 48.5631C65.7148 48.2936 65.9283 48.0631 66.1979 48.0631H68.3944C68.664 48.0631 68.8775 48.2936 68.8554 48.5631ZM224.612 48.0631H222.415C222.146 48.0631 221.932 48.2936 221.954 48.5631C222.441 54.6554 222.441 60.7764 221.954 66.8688C221.934 67.1383 222.146 67.3688 222.415 67.3688H224.612C224.881 67.3688 225.095 67.1383 225.073 66.8688C224.586 60.7764 224.586 54.6554 225.073 48.5631C225.094 48.2936 224.881 48.0631 224.612 48.0631ZM189.085 48.0696H188.23C183.071 48.4823 180.859 48.5448 176.602 48.2584C175.833 48.2063 174.996 48.1438 174.063 48.0696C173.803 48.0488 173.582 48.2467 173.566 48.5032C173.566 48.5214 173.563 48.5383 173.565 48.5566C173.632 49.399 173.69 50.2427 173.738 51.0865C173.835 52.7779 173.895 54.4705 173.917 56.1632C173.932 57.1931 173.932 58.2244 173.917 59.2543C173.894 60.9509 173.835 62.6475 173.736 64.3428C173.688 65.1826 173.631 66.0224 173.565 66.8623C173.563 66.8857 173.565 66.9078 173.566 66.93C173.566 66.9469 173.568 66.9638 173.571 66.9794C173.574 66.9951 173.578 67.0107 173.583 67.025C173.587 67.0406 173.592 67.0563 173.597 67.0706C173.604 67.0849 173.61 67.0992 173.618 67.1136C173.624 67.1266 173.632 67.1409 173.641 67.1539C173.651 67.1669 173.66 67.1787 173.67 67.1917C173.679 67.2034 173.69 67.2151 173.7 67.2255C173.71 67.2359 173.722 67.2464 173.734 67.2555C173.746 67.2659 173.759 67.275 173.772 67.2841C173.785 67.2919 173.798 67.2997 173.811 67.3076C173.825 67.3154 173.839 67.3219 173.854 67.3284C173.868 67.3349 173.884 67.3388 173.899 67.3427C173.915 67.3466 173.929 67.3505 173.945 67.3544C173.96 67.357 173.977 67.3583 173.994 67.3596C174.016 67.3609 174.039 67.3636 174.062 67.361C174.992 67.2867 175.825 67.2242 176.593 67.1721C180.855 66.8857 183.067 66.9482 188.228 67.361H189.084C189.353 67.3831 189.584 67.1695 189.584 66.9V64.7034C189.584 64.4339 189.353 64.2204 189.084 64.2425H188.228C183.036 64.6579 180.826 64.7191 176.515 64.4261C176.411 62.6501 176.35 60.8728 176.329 59.0942C180.389 58.7934 181.459 58.852 186.692 59.2699C186.962 59.2921 187.192 59.0785 187.192 58.809V56.6124C187.192 56.3429 186.962 56.1294 186.692 56.1515C181.458 56.5695 180.389 56.628 176.328 56.3273C176.348 54.5526 176.41 52.7792 176.514 51.007C180.826 50.7141 183.034 50.7753 188.228 51.1906H189.084C189.353 51.2115 189.584 50.9992 189.584 50.7297V48.5331C189.584 48.2636 189.353 48.0501 189.084 48.0722L189.085 48.0696ZM213.28 48.0644H212.425C207.263 48.4771 205.05 48.5396 200.789 48.2532C200.021 48.2011 199.188 48.1386 198.258 48.0644C198.235 48.0631 198.213 48.0644 198.19 48.0657C198.174 48.0657 198.157 48.0683 198.141 48.0709C198.125 48.0735 198.11 48.0774 198.095 48.0826C198.08 48.0865 198.065 48.0917 198.05 48.0969C198.036 48.1035 198.021 48.11 198.007 48.1178C197.994 48.1243 197.98 48.1321 197.967 48.1412C197.954 48.1503 197.94 48.1594 197.929 48.1699C197.917 48.179 197.905 48.1894 197.895 48.1998C197.884 48.2102 197.874 48.2219 197.865 48.2337C197.855 48.2454 197.845 48.2584 197.836 48.2714C197.829 48.2844 197.821 48.2975 197.813 48.3118C197.805 48.3261 197.799 48.3404 197.792 48.3547C197.786 48.3691 197.782 48.3847 197.778 48.4003C197.774 48.4159 197.77 48.4303 197.767 48.4459C197.765 48.4615 197.763 48.4784 197.762 48.4954C197.761 48.5175 197.758 48.5396 197.761 48.5631C197.847 49.6321 197.917 50.4511 197.972 51.1112C198.177 53.5513 198.177 53.7883 197.972 56.2296C197.916 56.8898 197.845 57.7088 197.761 58.7778C197.759 58.8012 197.761 58.8233 197.762 58.8455C197.762 58.8624 197.765 58.8793 197.767 58.8949C197.77 58.9106 197.774 58.9262 197.778 58.9405C197.782 58.9561 197.787 58.9718 197.792 58.9861C197.799 59.0004 197.805 59.0147 197.813 59.0291C197.819 59.0421 197.827 59.0564 197.836 59.0694C197.845 59.0824 197.855 59.0942 197.865 59.1072C197.875 59.1189 197.884 59.1306 197.895 59.141C197.905 59.1514 197.917 59.1619 197.929 59.171C197.94 59.1814 197.954 59.1905 197.967 59.1996C197.98 59.2074 197.993 59.2152 198.007 59.2231C198.021 59.2309 198.036 59.2374 198.05 59.2439C198.064 59.2504 198.08 59.2543 198.095 59.2582C198.111 59.2621 198.125 59.266 198.141 59.2699C198.157 59.2725 198.174 59.2738 198.19 59.2751C198.213 59.2764 198.235 59.279 198.258 59.2764C199.188 59.2022 200.021 59.1397 200.789 59.0876C204.595 58.8311 206.768 58.8546 210.866 59.1567C211.077 61.6579 211.077 61.8675 210.866 64.3688C205.942 64.7308 203.798 64.6917 198.258 64.249C197.989 64.2269 197.758 64.4404 197.758 64.7099V66.9065C197.758 67.1761 197.989 67.3896 198.258 67.3675C203.776 66.9261 205.923 66.8844 210.806 67.2425C211.314 67.2802 211.852 67.3206 212.426 67.3675H213.281C213.305 67.3688 213.327 67.3675 213.349 67.3662C213.366 67.3662 213.383 67.3636 213.399 67.361C213.414 67.3583 213.43 67.3544 213.444 67.3492C213.46 67.3453 213.474 67.3401 213.49 67.3349C213.504 67.3284 213.518 67.3219 213.533 67.3141C213.546 67.3076 213.56 67.2997 213.573 67.2906C213.586 67.2815 213.599 67.2724 213.611 67.262C213.623 67.2529 213.634 67.2425 213.645 67.232C213.655 67.2216 213.665 67.2099 213.675 67.1982C213.685 67.1865 213.694 67.1734 213.703 67.1604C213.712 67.1474 213.719 67.1344 213.727 67.1201C213.734 67.1057 213.741 67.0914 213.747 67.0771C213.754 67.0628 213.758 67.0471 213.762 67.0315C213.766 67.0159 213.77 67.0016 213.774 66.986C213.776 66.9703 213.777 66.9534 213.779 66.9365C213.78 66.9143 213.783 66.8922 213.78 66.8688C213.694 65.7998 213.624 64.9808 213.569 64.3206C213.363 61.8806 213.363 61.6436 213.569 59.2022C213.625 58.5421 213.695 57.7231 213.78 56.6541C213.781 56.6307 213.78 56.6085 213.779 56.5864C213.779 56.5695 213.776 56.5525 213.774 56.5369C213.771 56.5213 213.767 56.5057 213.762 56.4913C213.758 56.4757 213.753 56.4601 213.747 56.4458C213.741 56.4314 213.734 56.4171 213.727 56.4028C213.719 56.3885 213.712 56.3754 213.703 56.3624C213.694 56.3494 213.685 56.3377 213.675 56.3247C213.665 56.3129 213.655 56.3012 213.645 56.2895C213.634 56.2791 213.623 56.2687 213.611 56.2596C213.599 56.2491 213.586 56.24 213.573 56.2309C213.56 56.2231 213.547 56.2153 213.533 56.2075C213.518 56.1997 213.504 56.1932 213.49 56.1866C213.475 56.1801 213.46 56.1762 213.444 56.1723C213.428 56.1684 213.414 56.1645 213.399 56.1606C213.383 56.158 213.366 56.1567 213.349 56.1554C213.327 56.1541 213.305 56.1515 213.281 56.1541H212.426C211.852 56.1997 211.314 56.2413 210.806 56.2791C206.707 56.5799 204.534 56.5981 200.677 56.3351C200.46 53.757 200.46 53.5799 200.677 51.0018C205.012 50.7063 207.219 50.7675 212.425 51.1828H213.28C213.55 51.2037 213.78 50.9914 213.78 50.7219V48.5253C213.78 48.2558 213.55 48.0423 213.28 48.0644ZM141.336 66.857C141.337 66.8805 141.336 66.9026 141.335 66.9248C141.335 66.9417 141.332 66.9586 141.329 66.9742C141.327 66.9899 141.323 67.0055 141.319 67.0198C141.315 67.0354 141.31 67.0498 141.305 67.0654C141.298 67.0797 141.292 67.094 141.284 67.1084C141.277 67.1214 141.27 67.1357 141.26 67.1487C141.251 67.1617 141.242 67.1748 141.232 67.1865C141.223 67.1982 141.212 67.2099 141.202 67.2203C141.191 67.2307 141.18 67.2412 141.168 67.2503C141.156 67.2607 141.143 67.2698 141.13 67.2789C141.117 67.2867 141.104 67.2945 141.09 67.3024C141.076 67.3102 141.061 67.3167 141.047 67.3232C141.033 67.3297 141.017 67.3336 141.001 67.3375C140.986 67.3414 140.971 67.3453 140.956 67.3492C140.94 67.3518 140.923 67.3531 140.906 67.3544C140.884 67.3557 140.862 67.3583 140.839 67.3557H139.983C139.409 67.3102 138.871 67.2685 138.363 67.2307C134.304 66.9326 132.134 66.9117 128.345 67.1669C127.578 67.219 126.745 67.2815 125.815 67.3557C125.792 67.357 125.768 67.3557 125.746 67.3544C125.731 67.3544 125.715 67.3518 125.699 67.3492C125.681 67.3466 125.664 67.3414 125.646 67.3362C125.634 67.3323 125.621 67.3284 125.61 67.3245C125.59 67.3167 125.573 67.3089 125.555 67.2984C125.546 67.2932 125.537 67.2893 125.529 67.2828C125.511 67.2711 125.492 67.2581 125.477 67.2438C125.47 67.2386 125.464 67.2333 125.457 67.2268C125.44 67.2112 125.425 67.193 125.412 67.1747C125.408 67.1682 125.403 67.163 125.399 67.1565C125.384 67.137 125.373 67.1149 125.362 67.094C125.36 67.0875 125.356 67.0823 125.353 67.0758C125.343 67.0524 125.335 67.0276 125.33 67.0029C125.328 66.9977 125.327 66.9912 125.326 66.986C125.321 66.9599 125.318 66.9339 125.318 66.9065C125.318 66.8896 125.315 66.874 125.318 66.8583C125.384 66.0198 125.442 65.18 125.49 64.3402C125.745 59.9249 125.745 55.4979 125.49 51.0813C125.442 50.2375 125.384 49.3951 125.317 48.5527C125.317 48.5409 125.317 48.5292 125.317 48.5175C125.322 48.2519 125.55 48.0436 125.815 48.0644C126.748 48.1386 127.584 48.2024 128.353 48.2532C132.132 48.5071 134.301 48.4863 138.349 48.1894C138.861 48.1516 139.402 48.11 139.982 48.0644H140.837C141.098 48.0436 141.319 48.2415 141.333 48.498C141.333 48.5162 141.336 48.5331 141.335 48.5514C141.267 49.3938 141.21 50.2375 141.161 51.0813C140.906 55.4966 140.906 59.9223 141.161 64.3376C141.21 65.1774 141.267 66.0172 141.333 66.857H141.336ZM138.388 51.0604C134.284 50.7597 132.111 50.7388 128.267 51.0005C128.005 55.4692 128.005 59.9496 128.267 64.4196C132.111 64.68 134.284 64.6605 138.387 64.3597C138.643 59.9314 138.643 55.4913 138.387 51.0617L138.388 51.0604ZM248.8 67.3662H246.604C246.334 67.3662 246.121 67.1357 246.143 66.8662C246.311 64.7594 246.418 62.6488 246.468 60.5368C242.993 60.3728 239.511 60.3663 236.036 60.5173C236.088 62.6358 236.194 64.7529 236.363 66.8662C236.384 67.1357 236.172 67.3662 235.902 67.3662H233.706C233.436 67.3662 233.222 67.1357 233.245 66.8662C233.41 64.7972 233.515 62.7243 233.567 60.6514C233.579 60.184 233.591 59.7165 233.597 59.2491C233.604 58.7582 233.607 58.2673 233.607 57.7765C233.607 57.2361 233.604 56.6971 233.596 56.1567C233.573 54.464 233.513 52.7713 233.415 51.08C233.367 50.2401 233.31 49.4003 233.243 48.5605C233.242 48.537 233.243 48.5149 233.245 48.4928C233.245 48.4758 233.247 48.4589 233.25 48.4433C233.252 48.4277 233.256 48.412 233.262 48.3977C233.265 48.3821 233.271 48.3678 233.276 48.3521C233.282 48.3378 233.289 48.3235 233.297 48.3092C233.303 48.2962 233.311 48.2818 233.32 48.2688C233.329 48.2558 233.338 48.2428 233.349 48.2311C233.359 48.2193 233.368 48.2076 233.379 48.1972C233.389 48.1868 233.401 48.1764 233.413 48.1672C233.424 48.1568 233.437 48.1477 233.45 48.1386C233.463 48.1308 233.476 48.123 233.491 48.1152C233.505 48.1074 233.518 48.1008 233.534 48.0943C233.548 48.0878 233.564 48.0839 233.579 48.08C233.595 48.0761 233.609 48.0722 233.625 48.0683C233.64 48.0657 233.657 48.0644 233.674 48.0631C233.696 48.0618 233.719 48.0592 233.742 48.0618C234.672 48.136 235.505 48.1985 236.273 48.2506C240.061 48.5058 242.23 48.4836 246.29 48.1868C246.798 48.149 247.335 48.1074 247.91 48.0618H248.765C248.789 48.0605 248.811 48.0618 248.833 48.0631C248.85 48.0631 248.867 48.0657 248.882 48.0683C248.898 48.0709 248.914 48.0748 248.928 48.0787C248.944 48.0826 248.959 48.0878 248.973 48.093C248.988 48.0995 249.002 48.1061 249.016 48.1139C249.031 48.1204 249.044 48.1282 249.057 48.1373C249.07 48.1464 249.083 48.1555 249.095 48.166C249.106 48.1764 249.118 48.1855 249.128 48.1959C249.139 48.2063 249.149 48.218 249.158 48.2298C249.169 48.2415 249.178 48.2545 249.187 48.2675C249.195 48.2805 249.203 48.2936 249.21 48.3079C249.218 48.3222 249.225 48.3365 249.231 48.3508C249.238 48.3652 249.242 48.3808 249.246 48.3964C249.25 48.412 249.253 48.4264 249.257 48.442C249.26 48.4576 249.261 48.4745 249.263 48.4915C249.264 48.5136 249.266 48.5357 249.264 48.5592C249.196 49.399 249.14 50.2375 249.092 51.0787C248.994 52.77 248.934 54.4627 248.911 56.1554C248.904 56.6853 248.901 57.2153 248.901 57.7465C248.901 58.2465 248.904 58.7478 248.911 59.2478C248.917 59.7244 248.929 60.2022 248.942 60.6788C248.996 62.7425 249.1 64.805 249.265 66.8649C249.287 67.1344 249.074 67.3649 248.804 67.3649L248.8 67.3662ZM246.505 57.8871C246.505 57.3429 246.505 56.7973 246.497 56.2531C246.475 54.5213 246.414 52.7896 246.313 51.0604C242.211 50.7597 240.037 50.7388 236.195 50.9992C236.091 52.77 236.03 54.5421 236.008 56.3143C236.001 56.8455 236 57.3754 236 57.9067C239.5 58.0603 243.005 58.0538 246.505 57.8871ZM87.2392 59.3845C85.1897 56.8702 83.5491 54.0487 82.376 51.0253L81.9111 49.8248C81.7966 49.5696 81.7158 49.3886 81.475 49.3886C81.2341 49.3886 81.0388 49.5839 81.0388 49.8248V51.5474C81.0427 53.244 81.6286 54.8885 82.7002 56.2036C84.7496 58.7179 86.3902 61.5394 87.5634 64.5628L88.0282 65.7633C88.1428 66.0185 88.2235 66.1995 88.4644 66.1995C88.7053 66.1995 88.9006 66.0042 88.9006 65.7633V64.0407C88.8967 62.3441 88.3108 60.6996 87.2392 59.3845ZM91.3511 64.2386C90.4891 64.2386 89.7899 64.9378 89.7899 65.7998C89.7899 66.6617 90.4891 67.361 91.3511 67.361C92.2131 67.361 92.9123 66.6617 92.9123 65.7998C92.9123 64.9378 92.2131 64.2386 91.3511 64.2386ZM90.4227 63.2933C90.7105 63.1318 91.0308 63.0498 91.3511 63.0498C91.6714 63.0498 91.9917 63.1305 92.2795 63.2933C92.5763 63.46 92.9383 63.2282 92.911 62.8897C92.424 56.7973 92.424 54.658 92.911 48.567C92.9331 48.2975 92.7196 48.067 92.45 48.067H90.2535C89.9839 48.067 89.7704 48.2975 89.7925 48.567C90.2795 54.6593 90.2795 56.7986 89.7925 62.8897C89.7652 63.2282 90.1272 63.46 90.424 63.2933H90.4227ZM78.5922 48.067C77.7302 48.067 77.031 48.7662 77.031 49.6282C77.031 50.4901 77.7302 51.1893 78.5922 51.1893C79.4542 51.1893 80.1534 50.4901 80.1534 49.6282C80.1534 48.7662 79.4542 48.067 78.5922 48.067ZM79.5206 52.1346C79.2328 52.2961 78.9125 52.3781 78.5922 52.3781C78.2719 52.3781 77.9516 52.2974 77.6638 52.1346C77.367 51.968 77.005 52.1997 77.0323 52.5383C77.5193 58.6306 77.5193 60.7699 77.0323 66.861C77.0102 67.1305 77.2237 67.361 77.4933 67.361H79.6898C79.9594 67.361 80.1729 67.1305 80.1508 66.861C79.6638 60.7686 79.6638 58.6293 80.1508 52.5383C80.1781 52.1997 79.8161 51.968 79.5193 52.1346H79.5206ZM159.718 59.3845C157.669 56.8702 156.028 54.0487 154.855 51.0253L154.39 49.8248C154.276 49.5696 154.195 49.3886 153.954 49.3886C153.713 49.3886 153.518 49.5839 153.518 49.8248V51.5474C153.522 53.244 154.108 54.8885 155.179 56.2036C157.229 58.7179 158.87 61.5394 160.043 64.5628L160.507 65.7633C160.622 66.0185 160.703 66.1995 160.944 66.1995C161.185 66.1995 161.38 66.0042 161.38 65.7633V64.0407C161.376 62.3441 160.79 60.6996 159.718 59.3845ZM162.902 63.2946C163.19 63.1331 163.51 63.0511 163.83 63.0511C164.151 63.0511 164.471 63.1318 164.759 63.2946C165.056 63.4613 165.418 63.2295 165.39 62.891C164.903 56.7986 164.903 54.6593 165.39 48.5683C165.412 48.2988 165.199 48.0683 164.929 48.0683H162.733C162.463 48.0683 162.25 48.2988 162.272 48.5683C162.759 54.6606 162.759 56.7999 162.272 62.891C162.244 63.2295 162.606 63.4613 162.903 63.2946H162.902ZM163.83 64.2399C162.968 64.2399 162.269 64.9391 162.269 65.8011C162.269 66.663 162.968 67.3622 163.83 67.3622C164.692 67.3622 165.392 66.663 165.392 65.8011C165.392 64.9391 164.692 64.2399 163.83 64.2399ZM151.071 48.0683C150.209 48.0683 149.51 48.7675 149.51 49.6295C149.51 50.4914 150.209 51.1906 151.071 51.1906C151.933 51.1906 152.633 50.4914 152.633 49.6295C152.633 48.7675 151.933 48.0683 151.071 48.0683ZM152 52.1359C151.712 52.2974 151.392 52.3794 151.071 52.3794C150.751 52.3794 150.431 52.2987 150.143 52.1359C149.846 51.9693 149.484 52.201 149.512 52.5396C149.999 58.6319 149.999 60.7712 149.512 66.8623C149.491 67.1318 149.703 67.3622 149.973 67.3622H152.169C152.439 67.3622 152.652 67.1318 152.63 66.8623C152.143 60.7699 152.143 58.6306 152.63 52.5396C152.657 52.201 152.295 51.9693 151.999 52.1359H152ZM117.144 64.4521C117.162 64.6813 117.011 64.8805 116.799 64.9352L116.749 64.9443L103.89 67.3531L103.863 67.3583C103.837 67.3636 103.809 67.3675 103.782 67.3675H101.585C101.355 67.3675 101.167 67.1995 101.131 66.9833V66.7802C101.165 66.3532 101.196 65.9261 101.225 65.499C101.576 60.3155 101.576 55.1124 101.225 49.9289C101.193 49.4758 101.161 49.024 101.126 48.5709V48.5409C101.117 48.2818 101.324 48.0631 101.587 48.0631H103.783C103.821 48.0631 103.857 48.0683 103.893 48.0774L116.783 50.4901C116.957 50.5279 117.093 50.6659 117.133 50.8378V51.1268C117.084 51.7609 117.038 52.3443 116.999 52.8846C116.709 56.8403 116.709 58.5903 116.999 62.5446C117.042 63.1279 117.09 63.7581 117.146 64.4521H117.144ZM114.131 52.3469C114.128 52.3065 104.107 50.4719 104.107 50.4719C103.803 55.296 103.803 60.1345 104.107 64.9586L114.131 63.0811C114.474 58.5564 114.474 56.8728 114.131 52.3469Z" fill="#FF7C4D"/>
<path d="M133.036 42.1414H125.017V2.04309H133.036V42.1414ZM177.015 2.04309H168.995V42.1414H177.015V2.04309ZM190.985 14.0728H182.965V42.1414H190.985V14.0728ZM190.985 6.05344H182.965V10.0638H190.985V6.05344ZM119.068 22.0922V34.122C119.068 38.5516 115.477 42.1414 111.048 42.1414H103.029C98.5994 42.1414 95.0096 38.5503 95.0096 34.122V22.0922C95.0096 17.6626 98.6007 14.0728 103.029 14.0728H111.048C115.478 14.0728 119.068 17.6639 119.068 22.0922ZM111.048 22.0922C111.048 19.8774 109.253 18.0819 107.038 18.0819C104.823 18.0819 103.028 19.8774 103.028 22.0922V34.122C103.028 36.3368 104.823 38.1323 107.038 38.1323C109.253 38.1323 111.048 36.3368 111.048 34.122V22.0922ZM163.046 22.0922V34.122C163.046 38.5516 159.455 42.1414 155.027 42.1414H147.007C142.578 42.1414 138.988 38.5503 138.988 34.122V22.0922C138.988 17.6626 142.579 14.0728 147.007 14.0728H155.027C159.456 14.0728 163.046 17.6639 163.046 22.0922ZM155.027 22.0922C155.027 19.8774 153.231 18.0819 151.016 18.0819C148.802 18.0819 147.006 19.8774 147.006 22.0922V34.122C147.006 36.3368 148.802 38.1323 151.016 38.1323C153.231 38.1323 155.027 36.3368 155.027 34.122V22.0922ZM233.959 30.1116V34.122C233.959 36.3368 235.755 38.1323 237.969 38.1323H241.98C244.195 38.1323 245.99 36.3368 245.99 34.122H250.001C250.001 38.5516 246.409 42.1414 241.981 42.1414H233.962C229.532 42.1414 225.942 38.5503 225.942 34.122V22.0922C225.942 17.6626 229.533 14.0728 233.962 14.0728H241.981C246.411 14.0728 250.001 17.6639 250.001 22.0922V30.1116H233.962H233.959ZM233.959 26.1013H241.979V22.0909C241.979 19.8761 240.183 18.0806 237.968 18.0806C235.753 18.0806 233.958 19.8761 233.958 22.0909V26.1013H233.959ZM212.975 14.0715V34.1207C212.975 36.3355 211.18 38.131 208.965 38.131H204.954V14.0728H196.935V42.1414H207.025C214.739 42.1414 220.995 35.8876 220.995 28.1716V14.0728H212.975V14.0715ZM81.0411 14.0715H77.0307C74.8159 14.0715 73.0204 15.8671 73.0204 18.0819V2.04309H65.001V42.1414H73.0204V22.0922C73.0204 19.8774 74.8159 18.0819 77.0307 18.0819C79.2455 18.0819 81.0411 19.8774 81.0411 22.0922V42.1414H89.0605V22.0922C89.0605 17.6626 85.4694 14.0728 81.0411 14.0728V14.0715ZM73.0217 22.0909C73.0217 22.1599 73.023 22.229 73.0269 22.2967C73.0256 22.2277 73.0217 22.1599 73.0217 22.0909Z" fill="#28C3FF"/>
<path d="M52.0968 33.148L7.91133 12.4074C4.2291 10.6796 0 13.3657 0 17.4334V64.874C0 68.9416 4.2291 71.6278 7.91133 69.9L52.0968 49.1594C54.0317 48.2506 54.9991 46.4212 54.9991 44.5905V37.7156C54.9991 35.8849 54.0317 34.0555 52.0968 33.1467V33.148Z" fill="#50A0F0"/>
<path d="M52.0968 26.2731L7.91133 5.53254C4.2291 3.8047 0 6.49086 0 10.5585V57.9991C0 62.0668 4.2291 64.7542 7.91133 63.0264L52.0968 42.2858C54.0317 41.377 54.9991 39.5476 54.9991 37.7169V30.842C54.9991 29.0113 54.0317 27.1819 52.0968 26.2731Z" fill="#28C8FF"/>
<path d="M52.0968 21.2732L7.91133 0.532662C4.2291 -1.19517 0 1.49098 0 5.55862V51.1243C0 55.1919 4.2291 57.8794 7.91133 56.1515L52.0968 35.411C54.0317 34.5022 54.9991 32.6728 54.9991 30.8421V25.8421C54.9991 24.0114 54.0317 22.182 52.0968 21.2732Z" fill="#E1FAFF"/>
<path d="M0 5.55862C0 1.49098 4.2291 -1.19517 7.91133 0.532662L52.0968 21.2732C55.9665 23.0896 55.9665 28.5947 52.0968 30.4111L7.91133 51.1516C4.2291 52.8795 0 50.1933 0 46.1257V5.55862Z" fill="#5FDCF0"/>
<path d="M7.91133 5.53258L52.0968 26.2731C53.115 26.751 53.8585 27.4879 54.3402 28.3421C55.6918 25.9502 54.9483 22.6117 52.0968 21.2732L7.91133 0.532662C4.2291 -1.19517 0 1.49098 0 5.55862V10.5585C0 6.4909 4.2291 3.80474 7.91133 5.53258Z" fill="#78E6F0"/>
</svg>
