<svg width="250" height="71" viewBox="0 0 250 71" fill="none" xmlns="http://www.w3.org/2000/svg">
<path d="M129.711 56.369V67.4235H127.222V56.369C127.222 53.8222 125.15 51.7493 122.602 51.7493C120.054 51.7493 117.982 53.8222 117.982 56.369V67.4235H115.493V56.369C115.493 52.4498 118.681 49.2598 122.602 49.2598C126.522 49.2598 129.711 52.4485 129.711 56.369ZM175.632 67.4235H178.2V49.2962H175.632V67.4235ZM195.659 57.1112H188.623C187.154 57.1112 185.958 55.9159 185.958 54.4459C185.958 52.9759 187.153 51.7819 188.623 51.7819H198.077V49.2923H188.623C185.78 49.2923 183.469 51.6048 183.469 54.4459C183.469 57.287 185.782 59.5994 188.623 59.5994H195.659C197.128 59.5994 198.323 60.7947 198.323 62.2648C198.323 63.7348 197.128 64.9288 195.658 64.9288L183.467 64.9327V67.4222L195.658 67.4183C198.5 67.4183 200.812 65.1059 200.812 62.2648C200.812 59.4237 198.499 57.1112 195.658 57.1112H195.659ZM217.507 49.2923V57.1112H208.268V49.2923H205.779V67.4196H208.268V59.6007H217.507V67.4196H219.996V49.2923H217.507ZM104.062 51.7858C105.814 51.7858 107.465 52.4707 108.707 53.7141L109.034 54.0409L110.795 52.2805L110.468 51.9537C108.754 50.2402 106.48 49.2962 104.062 49.2962C99.0644 49.2962 94.998 53.3626 94.998 58.3599C94.998 63.3572 99.0644 67.4235 104.062 67.4235C106.478 67.4235 108.754 66.4795 110.468 64.766L110.795 64.4392L109.034 62.6788L108.707 63.0056C107.464 64.2491 105.814 64.934 104.062 64.934C100.882 64.934 98.1933 62.6775 97.6061 59.6047H108.433V57.1151H97.6061C98.1933 54.0435 100.882 51.7858 104.06 51.7858H104.062ZM152.704 57.1151H143.255V59.6047H150.173C149.586 62.6775 146.897 64.934 143.719 64.934C140.094 64.934 137.145 61.9848 137.145 58.3599C137.145 54.7349 140.094 51.7858 143.719 51.7858C145.471 51.7858 147.122 52.4707 148.364 53.7141L148.691 54.0409L150.452 52.2805L150.125 51.9537C148.411 50.2402 146.137 49.2962 143.719 49.2962C138.721 49.2962 134.655 53.3626 134.655 58.3599C134.655 63.3572 138.721 67.4235 143.719 67.4235C148.716 67.4235 152.782 63.3572 152.782 58.3599C152.782 58.0969 152.769 57.8273 152.743 57.537L152.705 57.1151H152.704ZM159.735 62.2648V49.2962H157.246V62.2648C157.246 65.1072 159.558 67.4183 162.399 67.4183H170.673V64.9288H162.399C160.931 64.9288 159.735 63.7335 159.735 62.2648Z" fill="#C283B6"/>
<path d="M133.035 42.1414H125.016V2.04309H133.035V42.1414ZM177.014 2.04309H168.994V42.1414H177.014V2.04309ZM190.984 14.0729H182.964V42.1414H190.984V14.0729ZM190.984 6.05345H182.964V10.0638H190.984V6.05345ZM119.067 22.0923V34.122C119.067 38.5516 115.476 42.1414 111.047 42.1414H103.028C98.5984 42.1414 95.0086 38.5503 95.0086 34.122V22.0923C95.0086 17.6626 98.5997 14.0729 103.028 14.0729H111.047C115.477 14.0729 119.067 17.6639 119.067 22.0923ZM111.047 22.0923C111.047 19.8774 109.252 18.0819 107.037 18.0819C104.822 18.0819 103.027 19.8774 103.027 22.0923V34.122C103.027 36.3368 104.822 38.1324 107.037 38.1324C109.252 38.1324 111.047 36.3368 111.047 34.122V22.0923ZM163.045 22.0923V34.122C163.045 38.5516 159.454 42.1414 155.026 42.1414H147.007C142.577 42.1414 138.987 38.5503 138.987 34.122V22.0923C138.987 17.6626 142.578 14.0729 147.007 14.0729H155.026C159.456 14.0729 163.045 17.6639 163.045 22.0923ZM155.026 22.0923C155.026 19.8774 153.23 18.0819 151.016 18.0819C148.801 18.0819 147.005 19.8774 147.005 22.0923V34.122C147.005 36.3368 148.801 38.1324 151.016 38.1324C153.23 38.1324 155.026 36.3368 155.026 34.122V22.0923ZM233.958 30.1117V34.122C233.958 36.3368 235.754 38.1324 237.969 38.1324H241.979C244.194 38.1324 245.989 36.3368 245.989 34.122H250C250 38.5516 246.409 42.1414 241.98 42.1414H233.961C229.531 42.1414 225.942 38.5503 225.942 34.122V22.0923C225.942 17.6626 229.533 14.0729 233.961 14.0729H241.98C246.41 14.0729 250 17.6639 250 22.0923V30.1117H233.961H233.958ZM233.958 26.1013H241.978V22.091C241.978 19.8761 240.182 18.0806 237.967 18.0806C235.753 18.0806 233.957 19.8761 233.957 22.091V26.1013H233.958ZM212.974 14.0715V34.1207C212.974 36.3355 211.179 38.1311 208.964 38.1311H204.954V14.0729H196.934V42.1414H207.024C214.739 42.1414 220.994 35.8876 220.994 28.1716V14.0729H212.974V14.0715ZM81.0401 14.0715H77.0298C74.8149 14.0715 73.0194 15.8671 73.0194 18.0819V2.04309H65V42.1414H73.0194V22.0923C73.0194 19.8774 74.8149 18.0819 77.0298 18.0819C79.2446 18.0819 81.0401 19.8774 81.0401 22.0923V42.1414H89.0595V22.0923C89.0595 17.6626 85.4684 14.0729 81.0401 14.0729V14.0715ZM73.0207 22.091C73.0207 22.16 73.022 22.229 73.0259 22.2967C73.0246 22.2277 73.0207 22.16 73.0207 22.091Z" fill="#28C3FF"/>
<path d="M52.0968 33.148L7.91133 12.4074C4.2291 10.6796 0 13.3657 0 17.4334V64.874C0 68.9417 4.2291 71.6278 7.91133 69.9L52.0968 49.1594C54.0317 48.2506 54.9991 46.4212 54.9991 44.5905V37.7156C54.9991 35.8849 54.0317 34.0555 52.0968 33.1467V33.148Z" fill="#50A0F0"/>
<path d="M52.0968 26.2731L7.91133 5.53254C4.2291 3.8047 0 6.49086 0 10.5585V57.9992C0 62.0668 4.2291 64.7543 7.91133 63.0264L52.0968 42.2859C54.0317 41.377 54.9991 39.5476 54.9991 37.7169V30.842C54.9991 29.0113 54.0317 27.1819 52.0968 26.2731Z" fill="#28C8FF"/>
<path d="M52.0968 21.2732L7.91133 0.532662C4.2291 -1.19518 0 1.49098 0 5.55863V51.1243C0 55.192 4.2291 57.8794 7.91133 56.1516L52.0968 35.411C54.0317 34.5022 54.9991 32.6728 54.9991 30.8421V25.8422C54.9991 24.0115 54.0317 22.1821 52.0968 21.2732Z" fill="#E1FAFF"/>
<path d="M0 5.55863C0 1.49098 4.2291 -1.19518 7.91133 0.532662L52.0968 21.2732C55.9666 23.0896 55.9666 28.5947 52.0968 30.4111L7.91133 51.1517C4.2291 52.8795 0 50.1933 0 46.1257V5.55863Z" fill="#5FDCF0"/>
<path d="M7.91133 5.53258L52.0968 26.2731C53.1151 26.751 53.8585 27.488 54.3403 28.3421C55.6918 25.9502 54.9484 22.6117 52.0968 21.2732L7.91133 0.532662C4.2291 -1.19518 0 1.49098 0 5.55862V10.5585C0 6.4909 4.2291 3.80475 7.91133 5.53258Z" fill="#78E6F0"/>
</svg>
